<svg width="98" height="43" viewBox="0 0 98 43" fill="none" xmlns="http://www.w3.org/2000/svg">
<g filter="url(#filter0_dii_403_13)">
<path d="M6.7604 12.5746C7.87871 14.9797 10.3397 15.2322 10.3397 15.2322C10.3397 15.2322 11.5823 12.8831 10.6072 10.7859C9.63205 8.68884 6.92692 7.8927 6.92692 7.8927C6.92692 7.8927 5.6421 10.1696 6.7604 12.5746Z" fill="#B3E200"/>
</g>
<g filter="url(#filter1_dii_403_13)">
<path d="M15.3508 13.9324C13.6679 15.9825 11.2218 15.6131 11.2218 15.6131C11.2218 15.6131 10.6044 13.0283 12.0719 11.2407C13.5393 9.45316 16.3575 9.35698 16.3575 9.35698C16.3575 9.35698 17.0337 11.8824 15.3508 13.9324Z" fill="#B3E200"/>
</g>
<path d="M10.944 16.56C12.4373 16.56 13.7707 16.944 14.944 17.712C16.1387 18.4587 17.0773 19.4933 17.76 20.816C18.464 22.1387 18.816 23.6747 18.816 25.424C18.816 27.1733 18.464 28.72 17.76 30.064C17.0773 31.3867 16.1493 32.432 14.976 33.2C13.824 33.9467 12.5227 34.32 11.072 34.32C10.2187 34.32 9.41867 34.1813 8.672 33.904C7.92533 33.6267 7.264 33.2747 6.688 32.848C6.13333 32.4213 5.696 31.9947 5.376 31.568C5.07733 31.12 4.928 30.7467 4.928 30.448L5.92 30.032V32.368C5.92 32.9227 5.73867 33.392 5.376 33.776C5.01333 34.1387 4.55467 34.32 4 34.32C3.44533 34.32 2.98667 34.1387 2.624 33.776C2.26133 33.4133 2.08 32.944 2.08 32.368V12.272C2.08 11.7173 2.26133 11.2587 2.624 10.896C2.98667 10.512 3.44533 10.32 4 10.32C4.55467 10.32 5.01333 10.512 5.376 10.896C5.73867 11.2587 5.92 11.7173 5.92 12.272V20.4L5.376 20.112C5.376 19.8347 5.52533 19.504 5.824 19.12C6.12267 18.7147 6.528 18.32 7.04 17.936C7.552 17.5307 8.13867 17.2 8.8 16.944C9.48267 16.688 10.1973 16.56 10.944 16.56ZM10.464 20.08C9.52533 20.08 8.704 20.3147 8 20.784C7.296 21.2533 6.74133 21.8933 6.336 22.704C5.952 23.4933 5.76 24.4 5.76 25.424C5.76 26.4267 5.952 27.344 6.336 28.176C6.74133 28.9867 7.296 29.6267 8 30.096C8.704 30.5653 9.52533 30.8 10.464 30.8C11.4027 30.8 12.2133 30.5653 12.896 30.096C13.6 29.6267 14.144 28.9867 14.528 28.176C14.9333 27.344 15.136 26.4267 15.136 25.424C15.136 24.4 14.9333 23.4933 14.528 22.704C14.144 21.8933 13.6 21.2533 12.896 20.784C12.2133 20.3147 11.4027 20.08 10.464 20.08ZM35.0378 16.88C35.5924 16.88 36.0511 17.072 36.4137 17.456C36.7764 17.8187 36.9578 18.2773 36.9578 18.832V32.432C36.9578 34.3947 36.5844 35.952 35.8378 37.104C35.1124 38.2773 34.1311 39.12 32.8938 39.632C31.6564 40.144 30.2698 40.4 28.7338 40.4C28.0511 40.4 27.3258 40.3467 26.5578 40.24C25.7898 40.1333 25.1604 39.9733 24.6698 39.76C24.0298 39.4827 23.5817 39.1307 23.3257 38.704C23.0911 38.2987 23.0484 37.8613 23.1978 37.392C23.3898 36.7733 23.6991 36.3467 24.1258 36.112C24.5524 35.8987 25.0004 35.8773 25.4697 36.048C25.8111 36.1547 26.2591 36.3147 26.8138 36.528C27.3684 36.7627 28.0084 36.88 28.7338 36.88C29.7151 36.88 30.5258 36.7413 31.1658 36.464C31.8271 36.208 32.3178 35.76 32.6378 35.12C32.9791 34.5013 33.1498 33.648 33.1498 32.56V30.416L33.8218 31.184C33.4591 31.888 33.0004 32.4747 32.4458 32.944C31.9124 33.392 31.2724 33.7333 30.5258 33.968C29.7791 34.2027 28.9258 34.32 27.9658 34.32C26.8351 34.32 25.8431 34.064 24.9897 33.552C24.1577 33.0187 23.5071 32.2933 23.0378 31.376C22.5684 30.4373 22.3338 29.3707 22.3338 28.176V18.832C22.3338 18.2773 22.5151 17.8187 22.8777 17.456C23.2404 17.072 23.6991 16.88 24.2537 16.88C24.8084 16.88 25.2671 17.072 25.6298 17.456C25.9924 17.8187 26.1737 18.2773 26.1737 18.832V27.024C26.1737 28.4107 26.4724 29.392 27.0698 29.968C27.6884 30.5227 28.5418 30.8 29.6298 30.8C30.3764 30.8 31.0058 30.6613 31.5178 30.384C32.0298 30.0853 32.4244 29.6587 32.7018 29.104C32.9791 28.528 33.1178 27.8347 33.1178 27.024V18.832C33.1178 18.2773 33.2991 17.8187 33.6618 17.456C34.0244 17.072 34.4831 16.88 35.0378 16.88ZM50.843 11.6C51.9523 11.6 52.987 11.92 53.947 12.56C54.9283 13.2 55.7177 14.064 56.315 15.152C56.9123 16.24 57.211 17.456 57.211 18.8C57.211 20.1227 56.9123 21.328 56.315 22.416C55.7177 23.504 54.9283 24.3787 53.947 25.04C52.987 25.68 51.9523 26 50.843 26H44.955L45.275 25.424V32.048C45.275 32.6027 45.1043 33.072 44.763 33.456C44.4217 33.8187 43.9737 34 43.419 34C42.8857 34 42.4483 33.8187 42.107 33.456C41.7657 33.072 41.595 32.6027 41.595 32.048V13.552C41.595 12.9973 41.7763 12.5387 42.139 12.176C42.523 11.792 42.9923 11.6 43.547 11.6H50.843ZM50.843 22.352C51.2483 22.352 51.643 22.1813 52.027 21.84C52.411 21.4987 52.731 21.0613 52.987 20.528C53.243 19.9733 53.371 19.3973 53.371 18.8C53.371 18.1813 53.243 17.6053 52.987 17.072C52.731 16.5387 52.411 16.112 52.027 15.792C51.643 15.4507 51.2483 15.28 50.843 15.28H44.891L45.275 14.704V22.864L44.923 22.352H50.843ZM74.576 16.56C75.1307 16.56 75.5893 16.7413 75.952 17.104C76.3147 17.4667 76.496 17.936 76.496 18.512V32.048C76.496 32.6027 76.3147 33.072 75.952 33.456C75.5893 33.8187 75.1307 34 74.576 34C74.0213 34 73.5627 33.8187 73.2 33.456C72.8373 33.072 72.656 32.6027 72.656 32.048V30.48L73.36 30.768C73.36 31.0453 73.2107 31.3867 72.912 31.792C72.6133 32.176 72.208 32.56 71.696 32.944C71.184 33.328 70.576 33.6587 69.872 33.936C69.1893 34.192 68.4427 34.32 67.632 34.32C66.16 34.32 64.8267 33.9467 63.632 33.2C62.4373 32.432 61.488 31.3867 60.784 30.064C60.1013 28.72 59.76 27.184 59.76 25.456C59.76 23.7067 60.1013 22.1707 60.784 20.848C61.488 19.504 62.4267 18.4587 63.6 17.712C64.7733 16.944 66.0747 16.56 67.504 16.56C68.4213 16.56 69.264 16.6987 70.032 16.976C70.8 17.2533 71.4613 17.6053 72.016 18.032C72.592 18.4587 73.0293 18.896 73.328 19.344C73.648 19.7707 73.808 20.1333 73.808 20.432L72.656 20.848V18.512C72.656 17.9573 72.8373 17.4987 73.2 17.136C73.5627 16.752 74.0213 16.56 74.576 16.56ZM68.112 30.8C69.0507 30.8 69.872 30.5653 70.576 30.096C71.28 29.6267 71.824 28.9867 72.208 28.176C72.6133 27.3653 72.816 26.4587 72.816 25.456C72.816 24.432 72.6133 23.5147 72.208 22.704C71.824 21.8933 71.28 21.2533 70.576 20.784C69.872 20.3147 69.0507 20.08 68.112 20.08C67.1947 20.08 66.384 20.3147 65.68 20.784C64.976 21.2533 64.4213 21.8933 64.016 22.704C63.632 23.5147 63.44 24.432 63.44 25.456C63.44 26.4587 63.632 27.3653 64.016 28.176C64.4213 28.9867 64.976 29.6267 65.68 30.096C66.384 30.5653 67.1947 30.8 68.112 30.8ZM93.5177 16.88C94.0724 16.88 94.5311 17.072 94.8937 17.456C95.2564 17.8187 95.4377 18.2773 95.4377 18.832V32.432C95.4377 34.3947 95.0644 35.952 94.3177 37.104C93.5924 38.2773 92.6111 39.12 91.3737 39.632C90.1364 40.144 88.7497 40.4 87.2137 40.4C86.5311 40.4 85.8057 40.3467 85.0377 40.24C84.2697 40.1333 83.6404 39.9733 83.1497 39.76C82.5097 39.4827 82.0617 39.1307 81.8057 38.704C81.5711 38.2987 81.5284 37.8613 81.6777 37.392C81.8697 36.7733 82.1791 36.3467 82.6057 36.112C83.0324 35.8987 83.4804 35.8773 83.9497 36.048C84.2911 36.1547 84.7391 36.3147 85.2937 36.528C85.8484 36.7627 86.4884 36.88 87.2137 36.88C88.1951 36.88 89.0058 36.7413 89.6458 36.464C90.3071 36.208 90.7977 35.76 91.1178 35.12C91.4591 34.5013 91.6298 33.648 91.6298 32.56V30.416L92.3018 31.184C91.9391 31.888 91.4804 32.4747 90.9257 32.944C90.3924 33.392 89.7524 33.7333 89.0057 33.968C88.2591 34.2027 87.4057 34.32 86.4457 34.32C85.3151 34.32 84.3231 34.064 83.4697 33.552C82.6377 33.0187 81.9871 32.2933 81.5177 31.376C81.0484 30.4373 80.8137 29.3707 80.8137 28.176V18.832C80.8137 18.2773 80.9951 17.8187 81.3577 17.456C81.7204 17.072 82.1791 16.88 82.7337 16.88C83.2884 16.88 83.7471 17.072 84.1097 17.456C84.4724 17.8187 84.6537 18.2773 84.6537 18.832V27.024C84.6537 28.4107 84.9524 29.392 85.5497 29.968C86.1684 30.5227 87.0217 30.8 88.1097 30.8C88.8564 30.8 89.4857 30.6613 89.9978 30.384C90.5098 30.0853 90.9044 29.6587 91.1818 29.104C91.4591 28.528 91.5977 27.8347 91.5977 27.024V18.832C91.5977 18.2773 91.7791 17.8187 92.1418 17.456C92.5044 17.072 92.9631 16.88 93.5177 16.88Z" fill="black"/>
<defs>
<filter id="filter0_dii_403_13" x="0.4051" y="4.94367" width="16.4736" height="19.1356" filterUnits="userSpaceOnUse" color-interpolation-filters="sRGB">
<feFlood flood-opacity="0" result="BackgroundImageFix"/>
<feColorMatrix in="SourceAlpha" type="matrix" values="0 0 0 0 0 0 0 0 0 0 0 0 0 0 0 0 0 0 127 0" result="hardAlpha"/>
<feOffset dy="2.94903"/>
<feGaussianBlur stdDeviation="2.94903"/>
<feColorMatrix type="matrix" values="0 0 0 0 0.140177 0 0 0 0 0.177018 0 0 0 0 0 0 0 0 0.24 0"/>
<feBlend mode="normal" in2="BackgroundImageFix" result="effect1_dropShadow_403_13"/>
<feBlend mode="normal" in="SourceGraphic" in2="effect1_dropShadow_403_13" result="shape"/>
<feColorMatrix in="SourceAlpha" type="matrix" values="0 0 0 0 0 0 0 0 0 0 0 0 0 0 0 0 0 0 127 0" result="hardAlpha"/>
<feOffset dy="0.917476"/>
<feGaussianBlur stdDeviation="0.458738"/>
<feComposite in2="hardAlpha" operator="arithmetic" k2="-1" k3="1"/>
<feColorMatrix type="matrix" values="0 0 0 0 0.742937 0 0 0 0 0.938197 0 0 0 0 0 0 0 0 1 0"/>
<feBlend mode="normal" in2="shape" result="effect2_innerShadow_403_13"/>
<feColorMatrix in="SourceAlpha" type="matrix" values="0 0 0 0 0 0 0 0 0 0 0 0 0 0 0 0 0 0 127 0" result="hardAlpha"/>
<feOffset dy="-0.917476"/>
<feGaussianBlur stdDeviation="0.458738"/>
<feComposite in2="hardAlpha" operator="arithmetic" k2="-1" k3="1"/>
<feColorMatrix type="matrix" values="0 0 0 0 0.648318 0 0 0 0 0.818709 0 0 0 0 0 0 0 0 1 0"/>
<feBlend mode="normal" in2="effect2_innerShadow_403_13" result="effect3_innerShadow_403_13"/>
</filter>
<filter id="filter1_dii_403_13" x="5.19485" y="6.40795" width="17.195" height="18.0782" filterUnits="userSpaceOnUse" color-interpolation-filters="sRGB">
<feFlood flood-opacity="0" result="BackgroundImageFix"/>
<feColorMatrix in="SourceAlpha" type="matrix" values="0 0 0 0 0 0 0 0 0 0 0 0 0 0 0 0 0 0 127 0" result="hardAlpha"/>
<feOffset dy="2.94903"/>
<feGaussianBlur stdDeviation="2.94903"/>
<feColorMatrix type="matrix" values="0 0 0 0 0.140177 0 0 0 0 0.177018 0 0 0 0 0 0 0 0 0.24 0"/>
<feBlend mode="normal" in2="BackgroundImageFix" result="effect1_dropShadow_403_13"/>
<feBlend mode="normal" in="SourceGraphic" in2="effect1_dropShadow_403_13" result="shape"/>
<feColorMatrix in="SourceAlpha" type="matrix" values="0 0 0 0 0 0 0 0 0 0 0 0 0 0 0 0 0 0 127 0" result="hardAlpha"/>
<feOffset dy="0.917476"/>
<feGaussianBlur stdDeviation="0.458738"/>
<feComposite in2="hardAlpha" operator="arithmetic" k2="-1" k3="1"/>
<feColorMatrix type="matrix" values="0 0 0 0 0.742937 0 0 0 0 0.938197 0 0 0 0 0 0 0 0 1 0"/>
<feBlend mode="normal" in2="shape" result="effect2_innerShadow_403_13"/>
<feColorMatrix in="SourceAlpha" type="matrix" values="0 0 0 0 0 0 0 0 0 0 0 0 0 0 0 0 0 0 127 0" result="hardAlpha"/>
<feOffset dy="-0.917476"/>
<feGaussianBlur stdDeviation="0.458738"/>
<feComposite in2="hardAlpha" operator="arithmetic" k2="-1" k3="1"/>
<feColorMatrix type="matrix" values="0 0 0 0 0.648318 0 0 0 0 0.818709 0 0 0 0 0 0 0 0 1 0"/>
<feBlend mode="normal" in2="effect2_innerShadow_403_13" result="effect3_innerShadow_403_13"/>
</filter>
</defs>
</svg>
